<mxfile modified="2022-04-05T08:53:25.754Z" host="app.diagrams.net" agent="5.0 (Macintosh; Intel Mac OS X 10_15_7) AppleWebKit/537.36 (KHTML, like Gecko) Chrome/99.0.4844.84 Safari/537.36" etag="7ji4e3m1aeiurN1Tf--D" version="17.4.0" type="github">
  <diagram id="Ht1M8jgEwFfnCIfOTk4-" name="Page-1">
    <mxGraphModel dx="2430" dy="1612" grid="1" gridSize="10" guides="1" tooltips="1" connect="1" arrows="1" fold="1" page="1" pageScale="1" pageWidth="1169" pageHeight="827" math="0" shadow="0">
      <root>
        <mxCell id="0" />
        <mxCell id="1" parent="0" />
        <mxCell id="NLucVYzMH5eNveuQ9aF5-2" value="Message Queue" style="shape=cylinder3;whiteSpace=wrap;html=1;boundedLbl=1;backgroundOutline=1;size=15;direction=south;" vertex="1" parent="1">
          <mxGeometry x="450" y="-780" width="250" height="40" as="geometry" />
        </mxCell>
        <mxCell id="NLucVYzMH5eNveuQ9aF5-5" value="" style="rounded=1;whiteSpace=wrap;html=1;" vertex="1" parent="1">
          <mxGeometry x="30" y="-800" width="390" height="100" as="geometry" />
        </mxCell>
        <mxCell id="NLucVYzMH5eNveuQ9aF5-4" value="&lt;span&gt;Portfolio Notification&lt;/span&gt;&lt;br&gt;&lt;span&gt;generator&lt;/span&gt;" style="rounded=1;whiteSpace=wrap;html=1;" vertex="1" parent="1">
          <mxGeometry x="40" y="-790" width="110" height="60" as="geometry" />
        </mxCell>
        <mxCell id="NLucVYzMH5eNveuQ9aF5-6" value="&lt;span&gt;Notes Notification&lt;/span&gt;&lt;br&gt;&lt;span&gt;generator&lt;/span&gt;" style="rounded=1;whiteSpace=wrap;html=1;" vertex="1" parent="1">
          <mxGeometry x="290" y="-790" width="120" height="60" as="geometry" />
        </mxCell>
        <mxCell id="NLucVYzMH5eNveuQ9aF5-8" value="Notification DB&lt;br&gt;" style="shape=cylinder3;whiteSpace=wrap;html=1;boundedLbl=1;backgroundOutline=1;size=15;" vertex="1" parent="1">
          <mxGeometry x="900" y="-810" width="100" height="100" as="geometry" />
        </mxCell>
        <mxCell id="NLucVYzMH5eNveuQ9aF5-10" value="Notification&amp;nbsp;&lt;br&gt;Consumer" style="rounded=1;whiteSpace=wrap;html=1;" vertex="1" parent="1">
          <mxGeometry x="730" y="-790" width="120" height="60" as="geometry" />
        </mxCell>
        <mxCell id="NLucVYzMH5eNveuQ9aF5-13" value="Batch Producers: System Generated Notification" style="text;html=1;strokeColor=none;fillColor=none;align=center;verticalAlign=middle;whiteSpace=wrap;rounded=0;" vertex="1" parent="1">
          <mxGeometry x="-50" y="-730" width="550" height="30" as="geometry" />
        </mxCell>
        <mxCell id="NLucVYzMH5eNveuQ9aF5-14" value="Notification API Server" style="rounded=1;whiteSpace=wrap;html=1;" vertex="1" parent="1">
          <mxGeometry x="160" y="-650" width="120" height="60" as="geometry" />
        </mxCell>
        <mxCell id="NLucVYzMH5eNveuQ9aF5-15" value="&lt;span&gt;Screener Notification&lt;/span&gt;&lt;br&gt;&lt;span&gt;generator&lt;/span&gt;" style="rounded=1;whiteSpace=wrap;html=1;" vertex="1" parent="1">
          <mxGeometry x="160" y="-790" width="120" height="60" as="geometry" />
        </mxCell>
      </root>
    </mxGraphModel>
  </diagram>
</mxfile>
